<mxfile host="app.diagrams.net" agent="Mozilla/5.0 (X11; Ubuntu; Linux x86_64; rv:131.0) Gecko/20100101 Firefox/131.0" version="24.8.3">
  <diagram name="PÃ¡gina-1" id="xaCt6IvVhIgm9YUj7q6O">
    <mxGraphModel dx="2049" dy="2263" grid="1" gridSize="10" guides="1" tooltips="1" connect="1" arrows="1" fold="1" page="1" pageScale="1" pageWidth="827" pageHeight="1169" math="0" shadow="0">
      <root>
        <mxCell id="0" />
        <mxCell id="1" parent="0" />
        <mxCell id="W2NUbVuyAO9JIl5IL9B4-53" style="edgeStyle=orthogonalEdgeStyle;rounded=0;orthogonalLoop=1;jettySize=auto;html=1;entryX=0;entryY=0.5;entryDx=0;entryDy=0;strokeColor=#82b366;fillColor=#d5e8d4;" edge="1" parent="1" source="W2NUbVuyAO9JIl5IL9B4-1" target="W2NUbVuyAO9JIl5IL9B4-26">
          <mxGeometry relative="1" as="geometry">
            <Array as="points">
              <mxPoint x="580" y="80" />
              <mxPoint x="580" y="-10" />
            </Array>
          </mxGeometry>
        </mxCell>
        <mxCell id="W2NUbVuyAO9JIl5IL9B4-1" value="&lt;div&gt;&lt;font color=&quot;#000000&quot;&gt;PyAudio&lt;br&gt;&lt;/font&gt;&lt;/div&gt;&lt;div&gt;&lt;font color=&quot;#000000&quot;&gt;(Entrada)&lt;br&gt;&lt;/font&gt;&lt;/div&gt;" style="rounded=1;whiteSpace=wrap;html=1;strokeColor=#82b366;fillColor=#d5e8d4;strokeWidth=3;" vertex="1" parent="1">
          <mxGeometry x="370" y="10" width="160" height="140" as="geometry" />
        </mxCell>
        <mxCell id="W2NUbVuyAO9JIl5IL9B4-3" value="&lt;div&gt;&lt;font color=&quot;#000000&quot;&gt;Rubbber Band Library&lt;/font&gt;&lt;/div&gt;&lt;div&gt;&lt;font color=&quot;#000000&quot;&gt;(Thread 1)&lt;br&gt;&lt;/font&gt;&lt;/div&gt;" style="rounded=1;whiteSpace=wrap;html=1;strokeColor=#6c8ebf;fillColor=#dae8fc;strokeWidth=3;" vertex="1" parent="1">
          <mxGeometry x="990" y="70" width="160" height="60" as="geometry" />
        </mxCell>
        <mxCell id="W2NUbVuyAO9JIl5IL9B4-4" value="&lt;div&gt;&lt;font color=&quot;#000000&quot;&gt;Rubbber Band Library&lt;/font&gt;&lt;/div&gt;&lt;div&gt;&lt;font color=&quot;#000000&quot;&gt;(Thread 2)&lt;br&gt;&lt;/font&gt;&lt;/div&gt;" style="rounded=1;whiteSpace=wrap;html=1;strokeColor=#6c8ebf;fillColor=#dae8fc;strokeWidth=3;" vertex="1" parent="1">
          <mxGeometry x="990" y="160" width="160" height="60" as="geometry" />
        </mxCell>
        <mxCell id="W2NUbVuyAO9JIl5IL9B4-5" value="&lt;div&gt;&lt;font color=&quot;#000000&quot;&gt;Rubbber Band Library&lt;/font&gt;&lt;/div&gt;&lt;div&gt;&lt;font color=&quot;#000000&quot;&gt;(Thread N)&lt;br&gt;&lt;/font&gt;&lt;/div&gt;" style="rounded=1;whiteSpace=wrap;html=1;strokeColor=#6c8ebf;fillColor=#dae8fc;strokeWidth=3;" vertex="1" parent="1">
          <mxGeometry x="990" y="310" width="160" height="60" as="geometry" />
        </mxCell>
        <mxCell id="W2NUbVuyAO9JIl5IL9B4-6" value="" style="endArrow=none;dashed=1;html=1;dashPattern=1 3;strokeWidth=2;rounded=0;strokeColor=#23445D;entryX=0.5;entryY=1;entryDx=0;entryDy=0;exitX=0.5;exitY=0;exitDx=0;exitDy=0;" edge="1" parent="1" source="W2NUbVuyAO9JIl5IL9B4-5" target="W2NUbVuyAO9JIl5IL9B4-4">
          <mxGeometry width="50" height="50" relative="1" as="geometry">
            <mxPoint x="750" y="240" as="sourcePoint" />
            <mxPoint x="800" y="190" as="targetPoint" />
          </mxGeometry>
        </mxCell>
        <mxCell id="W2NUbVuyAO9JIl5IL9B4-8" value="" style="endArrow=classic;html=1;rounded=0;strokeColor=#82b366;entryX=0;entryY=0.5;entryDx=0;entryDy=0;fillColor=#d5e8d4;" edge="1" parent="1">
          <mxGeometry width="50" height="50" relative="1" as="geometry">
            <mxPoint x="900" y="170" as="sourcePoint" />
            <mxPoint x="990" y="170" as="targetPoint" />
          </mxGeometry>
        </mxCell>
        <mxCell id="W2NUbVuyAO9JIl5IL9B4-9" value="" style="endArrow=classic;html=1;rounded=0;strokeColor=#82b366;entryX=0;entryY=0.5;entryDx=0;entryDy=0;fillColor=#d5e8d4;" edge="1" parent="1">
          <mxGeometry width="50" height="50" relative="1" as="geometry">
            <mxPoint x="900" y="320" as="sourcePoint" />
            <mxPoint x="990" y="320" as="targetPoint" />
          </mxGeometry>
        </mxCell>
        <mxCell id="W2NUbVuyAO9JIl5IL9B4-10" value="" style="endArrow=none;html=1;rounded=0;strokeColor=#82b366;fillColor=#d5e8d4;" edge="1" parent="1">
          <mxGeometry width="50" height="50" relative="1" as="geometry">
            <mxPoint x="900" y="320" as="sourcePoint" />
            <mxPoint x="900" y="190" as="targetPoint" />
          </mxGeometry>
        </mxCell>
        <mxCell id="W2NUbVuyAO9JIl5IL9B4-11" value="" style="endArrow=classic;html=1;rounded=0;strokeColor=#82b366;entryX=0;entryY=0.5;entryDx=0;entryDy=0;fillColor=#d5e8d4;" edge="1" parent="1">
          <mxGeometry width="50" height="50" relative="1" as="geometry">
            <mxPoint x="900" y="80" as="sourcePoint" />
            <mxPoint x="990" y="80" as="targetPoint" />
          </mxGeometry>
        </mxCell>
        <mxCell id="W2NUbVuyAO9JIl5IL9B4-12" value="" style="endArrow=none;html=1;rounded=0;strokeColor=#82b366;fillColor=#d5e8d4;" edge="1" parent="1">
          <mxGeometry width="50" height="50" relative="1" as="geometry">
            <mxPoint x="900" y="190" as="sourcePoint" />
            <mxPoint x="900" y="80" as="targetPoint" />
          </mxGeometry>
        </mxCell>
        <mxCell id="W2NUbVuyAO9JIl5IL9B4-34" style="edgeStyle=orthogonalEdgeStyle;rounded=0;orthogonalLoop=1;jettySize=auto;html=1;entryX=0;entryY=0.5;entryDx=0;entryDy=0;strokeColor=#d6b656;fillColor=#fff2cc;" edge="1" parent="1" source="W2NUbVuyAO9JIl5IL9B4-13" target="W2NUbVuyAO9JIl5IL9B4-33">
          <mxGeometry relative="1" as="geometry">
            <Array as="points">
              <mxPoint x="450" y="400" />
            </Array>
          </mxGeometry>
        </mxCell>
        <mxCell id="W2NUbVuyAO9JIl5IL9B4-13" value="&lt;div&gt;&lt;font color=&quot;#000000&quot;&gt;PyRtMidi&lt;br&gt;&lt;/font&gt;&lt;/div&gt;&lt;div&gt;&lt;font color=&quot;#000000&quot;&gt;(Entrada)&lt;br&gt;&lt;/font&gt;&lt;/div&gt;" style="rounded=1;whiteSpace=wrap;html=1;strokeColor=#82b366;fillColor=#d5e8d4;strokeWidth=3;" vertex="1" parent="1">
          <mxGeometry x="370" y="210" width="160" height="140" as="geometry" />
        </mxCell>
        <mxCell id="W2NUbVuyAO9JIl5IL9B4-68" style="edgeStyle=orthogonalEdgeStyle;rounded=0;orthogonalLoop=1;jettySize=auto;html=1;entryX=0;entryY=0.5;entryDx=0;entryDy=0;strokeColor=#82b366;fillColor=#d5e8d4;" edge="1" parent="1" source="W2NUbVuyAO9JIl5IL9B4-14" target="W2NUbVuyAO9JIl5IL9B4-67">
          <mxGeometry relative="1" as="geometry" />
        </mxCell>
        <mxCell id="W2NUbVuyAO9JIl5IL9B4-14" value="&lt;div&gt;&lt;font color=&quot;#000000&quot;&gt;PyAudio&lt;br&gt;&lt;/font&gt;&lt;/div&gt;&lt;div&gt;&lt;font color=&quot;#000000&quot;&gt;(Saida)&lt;br&gt;&lt;/font&gt;&lt;/div&gt;" style="rounded=1;whiteSpace=wrap;html=1;strokeColor=#82b366;fillColor=#d5e8d4;strokeWidth=3;" vertex="1" parent="1">
          <mxGeometry x="1240" y="120" width="160" height="140" as="geometry" />
        </mxCell>
        <mxCell id="W2NUbVuyAO9JIl5IL9B4-15" value="" style="endArrow=classic;html=1;rounded=0;strokeColor=#82b366;entryX=0;entryY=0.5;entryDx=0;entryDy=0;exitX=1;exitY=0.5;exitDx=0;exitDy=0;fillColor=#d5e8d4;" edge="1" parent="1" source="W2NUbVuyAO9JIl5IL9B4-4" target="W2NUbVuyAO9JIl5IL9B4-14">
          <mxGeometry width="50" height="50" relative="1" as="geometry">
            <mxPoint x="1000" y="200" as="sourcePoint" />
            <mxPoint x="1050" y="150" as="targetPoint" />
          </mxGeometry>
        </mxCell>
        <mxCell id="W2NUbVuyAO9JIl5IL9B4-16" value="" style="endArrow=none;html=1;rounded=0;strokeColor=#82b366;entryX=1;entryY=0.5;entryDx=0;entryDy=0;fillColor=#d5e8d4;" edge="1" parent="1" target="W2NUbVuyAO9JIl5IL9B4-3">
          <mxGeometry width="50" height="50" relative="1" as="geometry">
            <mxPoint x="1210" y="100" as="sourcePoint" />
            <mxPoint x="1050" y="150" as="targetPoint" />
          </mxGeometry>
        </mxCell>
        <mxCell id="W2NUbVuyAO9JIl5IL9B4-20" value="" style="endArrow=classic;html=1;rounded=0;strokeColor=#82b366;fillColor=#d5e8d4;" edge="1" parent="1">
          <mxGeometry width="50" height="50" relative="1" as="geometry">
            <mxPoint x="1210" y="160" as="sourcePoint" />
            <mxPoint x="1240" y="160" as="targetPoint" />
            <Array as="points" />
          </mxGeometry>
        </mxCell>
        <mxCell id="W2NUbVuyAO9JIl5IL9B4-21" value="" style="endArrow=none;html=1;rounded=0;strokeColor=#82b366;fillColor=#d5e8d4;" edge="1" parent="1">
          <mxGeometry width="50" height="50" relative="1" as="geometry">
            <mxPoint x="1210" y="160" as="sourcePoint" />
            <mxPoint x="1210" y="100" as="targetPoint" />
          </mxGeometry>
        </mxCell>
        <mxCell id="W2NUbVuyAO9JIl5IL9B4-22" value="" style="endArrow=none;html=1;rounded=0;strokeColor=#82b366;exitX=1;exitY=0.5;exitDx=0;exitDy=0;fillColor=#d5e8d4;" edge="1" parent="1" source="W2NUbVuyAO9JIl5IL9B4-5">
          <mxGeometry width="50" height="50" relative="1" as="geometry">
            <mxPoint x="1150" y="210" as="sourcePoint" />
            <mxPoint x="1210" y="340" as="targetPoint" />
          </mxGeometry>
        </mxCell>
        <mxCell id="W2NUbVuyAO9JIl5IL9B4-24" value="" style="endArrow=none;html=1;rounded=0;strokeColor=#82b366;fillColor=#d5e8d4;" edge="1" parent="1">
          <mxGeometry width="50" height="50" relative="1" as="geometry">
            <mxPoint x="1210" y="340" as="sourcePoint" />
            <mxPoint x="1210" y="220" as="targetPoint" />
          </mxGeometry>
        </mxCell>
        <mxCell id="W2NUbVuyAO9JIl5IL9B4-52" style="edgeStyle=orthogonalEdgeStyle;rounded=0;orthogonalLoop=1;jettySize=auto;html=1;exitX=0.75;exitY=0;exitDx=0;exitDy=0;entryX=0.75;entryY=1;entryDx=0;entryDy=0;strokeColor=#82b366;fillColor=#d5e8d4;" edge="1" parent="1" source="W2NUbVuyAO9JIl5IL9B4-26" target="W2NUbVuyAO9JIl5IL9B4-47">
          <mxGeometry relative="1" as="geometry" />
        </mxCell>
        <mxCell id="W2NUbVuyAO9JIl5IL9B4-26" value="&lt;font color=&quot;#000000&quot;&gt;Thread detectora de &lt;i&gt;pitch&lt;br&gt;&lt;/i&gt;&lt;/font&gt;" style="rounded=1;whiteSpace=wrap;html=1;strokeColor=#6c8ebf;fillColor=#dae8fc;strokeWidth=3;" vertex="1" parent="1">
          <mxGeometry x="620" y="-40" width="160" height="60" as="geometry" />
        </mxCell>
        <mxCell id="W2NUbVuyAO9JIl5IL9B4-27" value="" style="endArrow=classic;html=1;rounded=0;strokeColor=#23445D;entryX=0;entryY=0.5;entryDx=0;entryDy=0;" edge="1" parent="1" target="W2NUbVuyAO9JIl5IL9B4-3">
          <mxGeometry width="50" height="50" relative="1" as="geometry">
            <mxPoint x="700" y="100" as="sourcePoint" />
            <mxPoint x="840" y="180" as="targetPoint" />
          </mxGeometry>
        </mxCell>
        <mxCell id="W2NUbVuyAO9JIl5IL9B4-28" value="" style="endArrow=none;html=1;rounded=0;strokeColor=#23445D;entryX=0.5;entryY=1;entryDx=0;entryDy=0;" edge="1" parent="1" target="W2NUbVuyAO9JIl5IL9B4-26">
          <mxGeometry width="50" height="50" relative="1" as="geometry">
            <mxPoint x="700" y="100" as="sourcePoint" />
            <mxPoint x="826" y="180" as="targetPoint" />
          </mxGeometry>
        </mxCell>
        <mxCell id="W2NUbVuyAO9JIl5IL9B4-30" value="" style="endArrow=classic;html=1;rounded=0;strokeColor=#23445D;entryX=0;entryY=0.5;entryDx=0;entryDy=0;" edge="1" parent="1">
          <mxGeometry width="50" height="50" relative="1" as="geometry">
            <mxPoint x="700" y="189.76" as="sourcePoint" />
            <mxPoint x="990" y="189.76" as="targetPoint" />
          </mxGeometry>
        </mxCell>
        <mxCell id="W2NUbVuyAO9JIl5IL9B4-31" value="" style="endArrow=classic;html=1;rounded=0;strokeColor=#23445D;entryX=0;entryY=0.5;entryDx=0;entryDy=0;" edge="1" parent="1">
          <mxGeometry width="50" height="50" relative="1" as="geometry">
            <mxPoint x="700" y="339.76" as="sourcePoint" />
            <mxPoint x="990" y="339.76" as="targetPoint" />
          </mxGeometry>
        </mxCell>
        <mxCell id="W2NUbVuyAO9JIl5IL9B4-32" value="" style="endArrow=none;html=1;rounded=0;strokeColor=#23445D;" edge="1" parent="1">
          <mxGeometry width="50" height="50" relative="1" as="geometry">
            <mxPoint x="700" y="340" as="sourcePoint" />
            <mxPoint x="700" y="100" as="targetPoint" />
          </mxGeometry>
        </mxCell>
        <mxCell id="W2NUbVuyAO9JIl5IL9B4-33" value="&lt;font color=&quot;#000000&quot;&gt;Thread gestora&lt;/font&gt;" style="rounded=1;whiteSpace=wrap;html=1;strokeColor=#6c8ebf;fillColor=#dae8fc;strokeWidth=3;" vertex="1" parent="1">
          <mxGeometry x="620" y="370" width="160" height="60" as="geometry" />
        </mxCell>
        <mxCell id="W2NUbVuyAO9JIl5IL9B4-37" value="" style="endArrow=classic;html=1;rounded=0;strokeColor=#b85450;entryX=0;entryY=0.833;entryDx=0;entryDy=0;entryPerimeter=0;fillColor=#f8cecc;" edge="1" parent="1" target="W2NUbVuyAO9JIl5IL9B4-3">
          <mxGeometry width="50" height="50" relative="1" as="geometry">
            <mxPoint x="820" y="120" as="sourcePoint" />
            <mxPoint x="870" y="130" as="targetPoint" />
          </mxGeometry>
        </mxCell>
        <mxCell id="W2NUbVuyAO9JIl5IL9B4-38" value="" style="endArrow=none;html=1;rounded=0;strokeColor=#b85450;fillColor=#f8cecc;" edge="1" parent="1">
          <mxGeometry width="50" height="50" relative="1" as="geometry">
            <mxPoint x="820" y="380" as="sourcePoint" />
            <mxPoint x="820" y="120" as="targetPoint" />
          </mxGeometry>
        </mxCell>
        <mxCell id="W2NUbVuyAO9JIl5IL9B4-39" value="" style="endArrow=classic;html=1;rounded=0;strokeColor=#b85450;entryX=0;entryY=0.833;entryDx=0;entryDy=0;entryPerimeter=0;fillColor=#f8cecc;" edge="1" parent="1">
          <mxGeometry width="50" height="50" relative="1" as="geometry">
            <mxPoint x="840" y="210" as="sourcePoint" />
            <mxPoint x="990" y="210" as="targetPoint" />
          </mxGeometry>
        </mxCell>
        <mxCell id="W2NUbVuyAO9JIl5IL9B4-40" value="" style="endArrow=classic;html=1;rounded=0;strokeColor=#b85450;entryX=0;entryY=0.833;entryDx=0;entryDy=0;entryPerimeter=0;fillColor=#f8cecc;" edge="1" parent="1">
          <mxGeometry width="50" height="50" relative="1" as="geometry">
            <mxPoint x="860" y="360" as="sourcePoint" />
            <mxPoint x="990" y="360" as="targetPoint" />
          </mxGeometry>
        </mxCell>
        <mxCell id="W2NUbVuyAO9JIl5IL9B4-41" value="" style="endArrow=none;html=1;rounded=0;strokeColor=#b85450;fillColor=#f8cecc;" edge="1" parent="1">
          <mxGeometry width="50" height="50" relative="1" as="geometry">
            <mxPoint x="840" y="390" as="sourcePoint" />
            <mxPoint x="840" y="210" as="targetPoint" />
          </mxGeometry>
        </mxCell>
        <mxCell id="W2NUbVuyAO9JIl5IL9B4-42" value="" style="endArrow=none;html=1;rounded=0;strokeColor=#b85450;fillColor=#f8cecc;" edge="1" parent="1">
          <mxGeometry width="50" height="50" relative="1" as="geometry">
            <mxPoint x="860" y="410" as="sourcePoint" />
            <mxPoint x="860" y="360" as="targetPoint" />
          </mxGeometry>
        </mxCell>
        <mxCell id="W2NUbVuyAO9JIl5IL9B4-43" value="" style="endArrow=none;html=1;rounded=0;strokeColor=#b85450;entryX=1;entryY=0.167;entryDx=0;entryDy=0;entryPerimeter=0;fillColor=#f8cecc;" edge="1" parent="1" target="W2NUbVuyAO9JIl5IL9B4-33">
          <mxGeometry width="50" height="50" relative="1" as="geometry">
            <mxPoint x="820" y="380" as="sourcePoint" />
            <mxPoint x="880" y="270" as="targetPoint" />
          </mxGeometry>
        </mxCell>
        <mxCell id="W2NUbVuyAO9JIl5IL9B4-50" style="edgeStyle=orthogonalEdgeStyle;rounded=0;orthogonalLoop=1;jettySize=auto;html=1;exitX=0.75;exitY=0;exitDx=0;exitDy=0;entryX=0.75;entryY=1;entryDx=0;entryDy=0;strokeColor=#82b366;fillColor=#d5e8d4;" edge="1" parent="1" source="W2NUbVuyAO9JIl5IL9B4-47" target="W2NUbVuyAO9JIl5IL9B4-48">
          <mxGeometry relative="1" as="geometry" />
        </mxCell>
        <mxCell id="W2NUbVuyAO9JIl5IL9B4-51" style="edgeStyle=orthogonalEdgeStyle;rounded=0;orthogonalLoop=1;jettySize=auto;html=1;exitX=0.25;exitY=1;exitDx=0;exitDy=0;entryX=0.25;entryY=0;entryDx=0;entryDy=0;strokeColor=#23445D;" edge="1" parent="1" source="W2NUbVuyAO9JIl5IL9B4-47" target="W2NUbVuyAO9JIl5IL9B4-26">
          <mxGeometry relative="1" as="geometry" />
        </mxCell>
        <mxCell id="W2NUbVuyAO9JIl5IL9B4-47" value="&lt;font color=&quot;#000000&quot;&gt;PyCoral&lt;/font&gt;" style="rounded=1;whiteSpace=wrap;html=1;strokeColor=#82b366;fillColor=#d5e8d4;strokeWidth=3;" vertex="1" parent="1">
          <mxGeometry x="620" y="-160" width="160" height="60" as="geometry" />
        </mxCell>
        <mxCell id="W2NUbVuyAO9JIl5IL9B4-49" style="edgeStyle=orthogonalEdgeStyle;rounded=0;orthogonalLoop=1;jettySize=auto;html=1;exitX=0.25;exitY=1;exitDx=0;exitDy=0;entryX=0.25;entryY=0;entryDx=0;entryDy=0;strokeColor=#23445D;" edge="1" parent="1" source="W2NUbVuyAO9JIl5IL9B4-48" target="W2NUbVuyAO9JIl5IL9B4-47">
          <mxGeometry relative="1" as="geometry" />
        </mxCell>
        <mxCell id="W2NUbVuyAO9JIl5IL9B4-48" value="&lt;font color=&quot;#000000&quot;&gt;&lt;i&gt;Coral Edge TPU&lt;/i&gt;&lt;/font&gt;" style="rounded=1;whiteSpace=wrap;html=1;strokeColor=#B09500;fontColor=#000000;fillColor=#e3c800;strokeWidth=3;" vertex="1" parent="1">
          <mxGeometry x="620" y="-270" width="160" height="60" as="geometry" />
        </mxCell>
        <mxCell id="W2NUbVuyAO9JIl5IL9B4-54" value="" style="endArrow=none;html=1;rounded=0;strokeColor=#82b366;fillColor=#d5e8d4;" edge="1" parent="1">
          <mxGeometry width="50" height="50" relative="1" as="geometry">
            <mxPoint x="580" y="80" as="sourcePoint" />
            <mxPoint x="900" y="80" as="targetPoint" />
          </mxGeometry>
        </mxCell>
        <mxCell id="W2NUbVuyAO9JIl5IL9B4-56" value="" style="endArrow=none;html=1;rounded=0;strokeColor=#b85450;exitX=1;exitY=0.333;exitDx=0;exitDy=0;exitPerimeter=0;fillColor=#f8cecc;" edge="1" parent="1" source="W2NUbVuyAO9JIl5IL9B4-33">
          <mxGeometry width="50" height="50" relative="1" as="geometry">
            <mxPoint x="810" y="400" as="sourcePoint" />
            <mxPoint x="840" y="390" as="targetPoint" />
          </mxGeometry>
        </mxCell>
        <mxCell id="W2NUbVuyAO9JIl5IL9B4-57" value="" style="endArrow=none;html=1;rounded=0;strokeColor=#b85450;exitX=1.005;exitY=0.67;exitDx=0;exitDy=0;exitPerimeter=0;fillColor=#f8cecc;" edge="1" parent="1" source="W2NUbVuyAO9JIl5IL9B4-33">
          <mxGeometry width="50" height="50" relative="1" as="geometry">
            <mxPoint x="810" y="400" as="sourcePoint" />
            <mxPoint x="860" y="410" as="targetPoint" />
          </mxGeometry>
        </mxCell>
        <mxCell id="W2NUbVuyAO9JIl5IL9B4-60" value="" style="rounded=0;whiteSpace=wrap;html=1;strokeColor=#b85450;fillColor=none;strokeWidth=3;movable=1;resizable=1;rotatable=1;deletable=1;editable=1;locked=0;connectable=1;" vertex="1" parent="1">
          <mxGeometry x="550" y="-70" width="630" height="520" as="geometry" />
        </mxCell>
        <mxCell id="W2NUbVuyAO9JIl5IL9B4-61" value="" style="endArrow=classic;html=1;rounded=0;strokeColor=#82b366;fillColor=#d5e8d4;" edge="1" parent="1">
          <mxGeometry width="50" height="50" relative="1" as="geometry">
            <mxPoint x="1210" y="220" as="sourcePoint" />
            <mxPoint x="1240" y="220" as="targetPoint" />
            <Array as="points" />
          </mxGeometry>
        </mxCell>
        <mxCell id="W2NUbVuyAO9JIl5IL9B4-64" style="edgeStyle=orthogonalEdgeStyle;rounded=0;orthogonalLoop=1;jettySize=auto;html=1;entryX=0;entryY=0.5;entryDx=0;entryDy=0;strokeColor=#82b366;fillColor=#d5e8d4;" edge="1" parent="1" source="W2NUbVuyAO9JIl5IL9B4-63" target="W2NUbVuyAO9JIl5IL9B4-1">
          <mxGeometry relative="1" as="geometry" />
        </mxCell>
        <mxCell id="W2NUbVuyAO9JIl5IL9B4-63" value="&lt;font color=&quot;#000000&quot;&gt;Microfone&lt;/font&gt;" style="rounded=1;whiteSpace=wrap;html=1;strokeColor=#B09500;fontColor=#000000;fillColor=#e3c800;strokeWidth=3;" vertex="1" parent="1">
          <mxGeometry x="160" y="10" width="160" height="140" as="geometry" />
        </mxCell>
        <mxCell id="W2NUbVuyAO9JIl5IL9B4-66" style="edgeStyle=orthogonalEdgeStyle;rounded=0;orthogonalLoop=1;jettySize=auto;html=1;entryX=0;entryY=0.5;entryDx=0;entryDy=0;strokeColor=#d6b656;fillColor=#fff2cc;" edge="1" parent="1" source="W2NUbVuyAO9JIl5IL9B4-65" target="W2NUbVuyAO9JIl5IL9B4-13">
          <mxGeometry relative="1" as="geometry" />
        </mxCell>
        <mxCell id="W2NUbVuyAO9JIl5IL9B4-65" value="&lt;font color=&quot;#000000&quot;&gt;Controlador MIDI&lt;br&gt;&lt;/font&gt;" style="rounded=1;whiteSpace=wrap;html=1;strokeColor=#B09500;fontColor=#000000;fillColor=#e3c800;strokeWidth=3;" vertex="1" parent="1">
          <mxGeometry x="160" y="210" width="160" height="140" as="geometry" />
        </mxCell>
        <mxCell id="W2NUbVuyAO9JIl5IL9B4-67" value="&lt;div&gt;&lt;font color=&quot;#000000&quot;&gt;Fones de ouvido/&lt;/font&gt;&lt;/div&gt;&lt;div&gt;&lt;font color=&quot;#000000&quot;&gt;Alto-falantes&lt;/font&gt;&lt;/div&gt;" style="rounded=1;whiteSpace=wrap;html=1;strokeColor=#B09500;fontColor=#000000;fillColor=#e3c800;strokeWidth=3;" vertex="1" parent="1">
          <mxGeometry x="1430" y="120" width="160" height="140" as="geometry" />
        </mxCell>
        <mxCell id="W2NUbVuyAO9JIl5IL9B4-71" value="&lt;font style=&quot;font-size: 15px;&quot; color=&quot;#000000&quot;&gt;Legenda:&lt;/font&gt;" style="rounded=0;whiteSpace=wrap;html=1;strokeColor=#FFFFFF;fontColor=#FFFFFF;fillColor=none;" vertex="1" parent="1">
          <mxGeometry x="900" y="490" width="120" height="60" as="geometry" />
        </mxCell>
        <mxCell id="W2NUbVuyAO9JIl5IL9B4-72" value="" style="rounded=1;whiteSpace=wrap;html=1;strokeColor=#82b366;fillColor=#d5e8d4;strokeWidth=3;" vertex="1" parent="1">
          <mxGeometry x="1015" y="500" width="70" height="40" as="geometry" />
        </mxCell>
        <mxCell id="W2NUbVuyAO9JIl5IL9B4-73" value="" style="rounded=1;whiteSpace=wrap;html=1;strokeColor=#6c8ebf;fillColor=#dae8fc;strokeWidth=3;" vertex="1" parent="1">
          <mxGeometry x="1015" y="560" width="70" height="40" as="geometry" />
        </mxCell>
        <mxCell id="W2NUbVuyAO9JIl5IL9B4-74" value="" style="rounded=1;whiteSpace=wrap;html=1;strokeColor=#B09500;fillColor=#e3c800;strokeWidth=3;fontColor=#000000;" vertex="1" parent="1">
          <mxGeometry x="1015" y="620" width="70" height="40" as="geometry" />
        </mxCell>
        <mxCell id="W2NUbVuyAO9JIl5IL9B4-75" value="" style="rounded=0;whiteSpace=wrap;html=1;strokeColor=#B20000;fillColor=none;fontColor=#ffffff;" vertex="1" parent="1">
          <mxGeometry x="1018.75" y="680" width="62.5" height="40" as="geometry" />
        </mxCell>
        <mxCell id="W2NUbVuyAO9JIl5IL9B4-76" value="Text" style="text;html=1;align=center;verticalAlign=middle;whiteSpace=wrap;rounded=0;fontColor=#FFFFFF;" vertex="1" parent="1">
          <mxGeometry x="950" y="720" width="60" height="30" as="geometry" />
        </mxCell>
        <mxCell id="W2NUbVuyAO9JIl5IL9B4-77" value="&lt;font color=&quot;#000000&quot;&gt;API&lt;/font&gt;" style="text;html=1;align=center;verticalAlign=middle;whiteSpace=wrap;rounded=0;fontColor=#FFFFFF;" vertex="1" parent="1">
          <mxGeometry x="1100" y="505" width="60" height="30" as="geometry" />
        </mxCell>
        <mxCell id="W2NUbVuyAO9JIl5IL9B4-78" value="&lt;font color=&quot;#000000&quot;&gt;Thread da aplicaÃ§Ã£o&lt;br&gt;&lt;/font&gt;" style="text;html=1;align=center;verticalAlign=middle;whiteSpace=wrap;rounded=0;fontColor=#FFFFFF;" vertex="1" parent="1">
          <mxGeometry x="1110" y="565" width="130" height="30" as="geometry" />
        </mxCell>
        <mxCell id="W2NUbVuyAO9JIl5IL9B4-80" value="&lt;font color=&quot;#000000&quot;&gt;Elemento de hardware&lt;br&gt;&lt;/font&gt;" style="text;html=1;align=center;verticalAlign=middle;whiteSpace=wrap;rounded=0;fontColor=#FFFFFF;" vertex="1" parent="1">
          <mxGeometry x="1110" y="625" width="130" height="30" as="geometry" />
        </mxCell>
        <mxCell id="W2NUbVuyAO9JIl5IL9B4-81" value="&lt;font color=&quot;#000000&quot;&gt;Limites da aplicaÃ§Ã£o&lt;br&gt;&lt;/font&gt;" style="text;html=1;align=center;verticalAlign=middle;whiteSpace=wrap;rounded=0;fontColor=#FFFFFF;" vertex="1" parent="1">
          <mxGeometry x="1110" y="692.5" width="130" height="15" as="geometry" />
        </mxCell>
        <mxCell id="W2NUbVuyAO9JIl5IL9B4-83" style="edgeStyle=orthogonalEdgeStyle;rounded=0;orthogonalLoop=1;jettySize=auto;html=1;entryX=0;entryY=0.5;entryDx=0;entryDy=0;strokeColor=#82b366;fillColor=#d5e8d4;" edge="1" parent="1">
          <mxGeometry relative="1" as="geometry">
            <mxPoint x="1260" y="519.8399999999999" as="sourcePoint" />
            <mxPoint x="1310" y="519.8399999999999" as="targetPoint" />
          </mxGeometry>
        </mxCell>
        <mxCell id="W2NUbVuyAO9JIl5IL9B4-84" style="edgeStyle=orthogonalEdgeStyle;rounded=0;orthogonalLoop=1;jettySize=auto;html=1;entryX=0;entryY=0.5;entryDx=0;entryDy=0;strokeColor=#b85450;fillColor=#f8cecc;" edge="1" parent="1">
          <mxGeometry relative="1" as="geometry">
            <mxPoint x="1260" y="579.8299999999999" as="sourcePoint" />
            <mxPoint x="1310" y="579.8299999999999" as="targetPoint" />
          </mxGeometry>
        </mxCell>
        <mxCell id="W2NUbVuyAO9JIl5IL9B4-85" style="edgeStyle=orthogonalEdgeStyle;rounded=0;orthogonalLoop=1;jettySize=auto;html=1;entryX=0;entryY=0.5;entryDx=0;entryDy=0;strokeColor=#d6b656;fillColor=#fff2cc;" edge="1" parent="1">
          <mxGeometry relative="1" as="geometry">
            <mxPoint x="1260" y="639.8299999999999" as="sourcePoint" />
            <mxPoint x="1310" y="639.8299999999999" as="targetPoint" />
          </mxGeometry>
        </mxCell>
        <mxCell id="W2NUbVuyAO9JIl5IL9B4-86" style="edgeStyle=orthogonalEdgeStyle;rounded=0;orthogonalLoop=1;jettySize=auto;html=1;entryX=0;entryY=0.5;entryDx=0;entryDy=0;strokeColor=#23445d;fillColor=#bac8d3;" edge="1" parent="1">
          <mxGeometry relative="1" as="geometry">
            <mxPoint x="1260" y="699.85" as="sourcePoint" />
            <mxPoint x="1310" y="699.85" as="targetPoint" />
          </mxGeometry>
        </mxCell>
        <mxCell id="W2NUbVuyAO9JIl5IL9B4-87" value="&lt;font color=&quot;#000000&quot;&gt;Sinal de Ã¡udio&lt;br&gt;&lt;/font&gt;" style="text;html=1;align=center;verticalAlign=middle;whiteSpace=wrap;rounded=0;fontColor=#FFFFFF;" vertex="1" parent="1">
          <mxGeometry x="1320" y="505" width="80" height="30" as="geometry" />
        </mxCell>
        <mxCell id="W2NUbVuyAO9JIl5IL9B4-88" value="&lt;font color=&quot;#000000&quot;&gt;FrequÃªncia desejada + Amplitude da envoltÃ³ria&lt;br&gt;&lt;/font&gt;" style="text;html=1;align=center;verticalAlign=middle;whiteSpace=wrap;rounded=0;fontColor=#FFFFFF;" vertex="1" parent="1">
          <mxGeometry x="1320" y="565" width="270" height="30" as="geometry" />
        </mxCell>
        <mxCell id="W2NUbVuyAO9JIl5IL9B4-89" value="&lt;font color=&quot;#000000&quot;&gt;Sinal MIDI&lt;br&gt;&lt;/font&gt;" style="text;html=1;align=center;verticalAlign=middle;whiteSpace=wrap;rounded=0;fontColor=#FFFFFF;" vertex="1" parent="1">
          <mxGeometry x="1255" y="625" width="210" height="30" as="geometry" />
        </mxCell>
        <mxCell id="W2NUbVuyAO9JIl5IL9B4-91" value="&lt;font color=&quot;#000000&quot;&gt;FrequÃªncia fundamental&lt;br&gt;&lt;/font&gt;" style="text;html=1;align=center;verticalAlign=middle;whiteSpace=wrap;rounded=0;fontColor=#FFFFFF;" vertex="1" parent="1">
          <mxGeometry x="1284" y="685" width="210" height="30" as="geometry" />
        </mxCell>
        <mxCell id="W2NUbVuyAO9JIl5IL9B4-92" value="" style="rounded=0;whiteSpace=wrap;html=1;strokeColor=#000000;fontColor=#FFFFFF;fillColor=none;strokeWidth=3;" vertex="1" parent="1">
          <mxGeometry x="920" y="480" width="670" height="250" as="geometry" />
        </mxCell>
      </root>
    </mxGraphModel>
  </diagram>
</mxfile>
